<svg width="697" height="697" viewBox="0 0 697 697" fill="none" xmlns="http://www.w3.org/2000/svg">
<path fill-rule="evenodd" clip-rule="evenodd" d="M697 349C697 348.833 697 348.667 697 348.5C697 156.029 540.971 0 348.5 0C156.029 0 0 156.029 0 348.5C0 356.906 0.297668 365.243 0.882935 373.5H81.8873L224 231.387L473.496 480.883L551.448 349H697ZM694.186 393H576.552L482.504 552.116L224 293.613L100.113 417.5H6.8299C38.8488 576.921 179.651 697 348.5 697C525.895 697 672.333 564.457 694.186 393Z" fill="#F0E9DC"/>
<circle cx="447" cy="218" r="79" fill="#E1DACD"/>
</svg>
