<svg width="711" height="711" viewBox="0 0 711 711" fill="none" xmlns="http://www.w3.org/2000/svg">
<g filter="url(#filter0_d)">
<path d="M704 349.5C704 541.971 547.971 698 355.5 698C163.029 698 7 541.971 7 349.5C7 157.029 163.029 1 355.5 1C547.971 1 704 157.029 704 349.5Z" fill="#8CD6EE"/>
</g>
<path fill-rule="evenodd" clip-rule="evenodd" d="M400.679 631.998C391.253 636.403 379.984 638.965 367.878 638.965C334.748 638.965 307.891 619.781 307.891 596.116C307.891 572.931 333.672 554.046 365.874 553.291C369.835 533.722 387.132 518.989 407.87 518.989C428.735 518.989 446.116 533.902 449.937 553.65C479.388 556.559 502.137 575.742 502.137 598.973C502.137 624.215 475.279 644.678 442.149 644.678C426.061 644.678 411.452 639.852 400.679 631.998Z" fill="white"/>
<path fill-rule="evenodd" clip-rule="evenodd" d="M602.083 297.246C595.799 300.183 588.286 301.891 580.216 301.891C558.129 301.891 540.224 289.101 540.224 273.325C540.224 257.868 557.411 245.279 578.88 244.775C581.52 231.729 593.052 221.907 606.877 221.907C620.787 221.907 632.374 231.849 634.922 245.014C654.556 246.953 669.721 259.742 669.721 275.23C669.721 292.058 651.816 305.699 629.729 305.699C619.004 305.699 609.265 302.483 602.083 297.246Z" fill="white"/>
<path fill-rule="evenodd" clip-rule="evenodd" d="M118.373 461.022C112.088 463.959 104.576 465.667 96.5054 465.667C74.4185 465.667 56.5136 452.877 56.5136 437.101C56.5136 421.644 73.701 409.055 95.1694 408.551C97.81 395.505 109.341 385.683 123.167 385.683C137.076 385.683 148.664 395.625 151.211 408.79C170.845 410.729 186.011 423.518 186.011 439.006C186.011 455.834 168.106 469.475 146.019 469.475C135.294 469.475 125.554 466.259 118.373 461.022Z" fill="white"/>
<path d="M356.289 217.309C428.86 217.309 487.691 276.14 487.691 348.711C487.691 421.282 428.86 480.113 356.289 480.113C283.718 480.113 224.887 421.282 224.887 348.711C224.887 276.14 283.718 217.309 356.289 217.309Z" fill="#F5EF57"/>
<path d="M185.272 197.335L201.431 181.176L255.295 235.039L239.136 251.199L185.272 197.335Z" fill="#F5EF57"/>
<path d="M451.897 463.96L468.056 447.801L521.92 501.665L505.761 517.824L451.897 463.96Z" fill="#F5EF57"/>
<path d="M468.056 253.892L451.897 237.733L505.761 183.869L521.92 200.028L468.056 253.892Z" fill="#F5EF57"/>
<path d="M204.124 517.824L187.965 501.665L241.829 447.801L257.988 463.96L204.124 517.824Z" fill="#F5EF57"/>
<path d="M342.169 122.88H365.022V199.055H342.169V122.88Z" fill="#F5EF57"/>
<path d="M342.169 499.945H365.022V576.12H342.169V499.945Z" fill="#F5EF57"/>
<path d="M502.137 362.831L502.137 339.978L578.312 339.978L578.312 362.831L502.137 362.831Z" fill="#F5EF57"/>
<path d="M128.88 362.831L128.88 339.978L205.055 339.978L205.055 362.831L128.88 362.831Z" fill="#F5EF57"/>
<defs>
<filter id="filter0_d" x="0" y="0" width="711" height="711" filterUnits="userSpaceOnUse" color-interpolation-filters="sRGB">
<feFlood flood-opacity="0" result="BackgroundImageFix"/>
<feColorMatrix in="SourceAlpha" type="matrix" values="0 0 0 0 0 0 0 0 0 0 0 0 0 0 0 0 0 0 127 0"/>
<feOffset dy="6"/>
<feGaussianBlur stdDeviation="3.5"/>
<feColorMatrix type="matrix" values="0 0 0 0 0 0 0 0 0 0 0 0 0 0 0 0 0 0 0.25 0"/>
<feBlend mode="normal" in2="BackgroundImageFix" result="effect1_dropShadow"/>
<feBlend mode="normal" in="SourceGraphic" in2="effect1_dropShadow" result="shape"/>
</filter>
</defs>
</svg>
