<svg width="711" height="711" viewBox="0 0 711 711" fill="none" xmlns="http://www.w3.org/2000/svg">
<g filter="url(#filter0_d)">
<circle cx="355.5" cy="349.5" r="348.5" fill="#F39763"/>
<path d="M226.003 206.672C298.574 206.672 357.404 265.503 357.404 338.074C357.404 410.645 298.574 469.475 226.003 469.475C153.432 469.475 94.6012 410.645 94.6012 338.074C94.6012 265.503 153.432 206.672 226.003 206.672Z" fill="#FBD653"/>
<path fill-rule="evenodd" clip-rule="evenodd" d="M703.523 367.881C693.966 551.808 541.805 698 355.5 698C180.106 698 34.9749 568.431 10.6014 399.788C58.9385 401.685 102.975 415.111 137.411 436.283C158.98 429.867 182.345 425.916 206.818 424.92C236.002 390.702 288.265 367.9 347.882 367.9C405.769 367.9 456.722 389.397 486.347 421.968C525.35 385.858 584.462 362.831 650.634 362.831C668.893 362.831 686.614 364.584 703.523 367.881Z" fill="#8A8A8A"/>
</g>
<defs>
<filter id="filter0_d" x="0" y="0" width="711" height="711" filterUnits="userSpaceOnUse" color-interpolation-filters="sRGB">
<feFlood flood-opacity="0" result="BackgroundImageFix"/>
<feColorMatrix in="SourceAlpha" type="matrix" values="0 0 0 0 0 0 0 0 0 0 0 0 0 0 0 0 0 0 127 0"/>
<feOffset dy="6"/>
<feGaussianBlur stdDeviation="3.5"/>
<feColorMatrix type="matrix" values="0 0 0 0 0 0 0 0 0 0 0 0 0 0 0 0 0 0 0.25 0"/>
<feBlend mode="normal" in2="BackgroundImageFix" result="effect1_dropShadow"/>
<feBlend mode="normal" in="SourceGraphic" in2="effect1_dropShadow" result="shape"/>
</filter>
</defs>
</svg>
