<svg width="711" height="711" viewBox="0 0 711 711" fill="none" xmlns="http://www.w3.org/2000/svg">
<g filter="url(#filter0_d)">
<circle cx="355.5" cy="349.5" r="348.5" fill="#7A3CDE"/>
<path fill-rule="evenodd" clip-rule="evenodd" d="M405.3 505.634C318.564 514.921 235.575 459.96 212.29 373.058C193.585 303.252 218.549 232.032 270.435 188.403C261.232 189.388 251.986 191.097 242.764 193.568C146.641 219.324 89.5972 318.127 115.353 414.25C141.109 510.373 239.912 567.417 336.035 541.661C362.352 534.609 385.739 522.082 405.3 505.634Z" fill="#FFEDAB"/>
<path d="M484.997 153.35L500.108 179.088L530.276 184.931L509.447 206.681L512.981 236.031L484.997 223.735L457.013 236.031L460.546 206.681L439.718 184.931L469.885 179.088L484.997 153.35Z" fill="#FBD653"/>
<path d="M566.885 301.891L581.392 327.629L610.353 333.472L590.357 355.222L593.749 384.572L566.885 372.276L540.02 384.572L543.412 355.222L523.417 333.472L552.378 327.629L566.885 301.891Z" fill="#FBD653"/>
<path d="M425.961 279.038L440.468 304.776L469.429 310.62L449.434 332.37L452.826 361.719L425.961 349.424L399.097 361.719L402.489 332.37L382.493 310.62L411.454 304.776L425.961 279.038Z" fill="#FBD653"/>
</g>
<defs>
<filter id="filter0_d" x="0" y="0" width="711" height="711" filterUnits="userSpaceOnUse" color-interpolation-filters="sRGB">
<feFlood flood-opacity="0" result="BackgroundImageFix"/>
<feColorMatrix in="SourceAlpha" type="matrix" values="0 0 0 0 0 0 0 0 0 0 0 0 0 0 0 0 0 0 127 0"/>
<feOffset dy="6"/>
<feGaussianBlur stdDeviation="3.5"/>
<feColorMatrix type="matrix" values="0 0 0 0 0 0 0 0 0 0 0 0 0 0 0 0 0 0 0.25 0"/>
<feBlend mode="normal" in2="BackgroundImageFix" result="effect1_dropShadow"/>
<feBlend mode="normal" in="SourceGraphic" in2="effect1_dropShadow" result="shape"/>
</filter>
</defs>
</svg>
